# xmcd CD database file
#
# Track frame offsets:
#	150
#	18539
#	34980
#	60454
#	72283
#	92688
#	106814
#	131742
#	149639
#	174729
#
# Disc length: 2672 seconds
#
# Revision: 0
# Processed by: cddbd v1.5.1PL2 Copyright (c) Steve Scherf et al.
# Submitted via: Feurio! 1.68 - http://www.feurio.com
#
DISCID=900a6e0a
DTITLE=Anne Ehmke - Curious Woman
DYEAR=1900
DGENRE=Deutscher Rock
TTITLE0=Good Song
TTITLE1=Sans Paroles
TTITLE2=Curious Woman
TTITLE3=Love Is The Seventh Wave
TTITLE4=Human Nature
TTITLE5=Lisa
TTITLE6=Hoppla
TTITLE7=Er (und er!)
TTITLE8=De' Karle Blues
TTITLE9=Markgräfler Hymn
EXTD=
EXTT0=
EXTT1=
EXTT2=
EXTT3=
EXTT4=
EXTT5=
EXTT6=
EXTT7=
EXTT8=
EXTT9=
PLAYORDER=
